/vscmnt/brussel_pixiu_data/_data_brussel/112/vsc11236/PredSimResults/SUBJ06opt3D/trackIG/worker_08.mot
version=1
nRows=10
nColumns=50
inDegrees=yes
endheader
                time	         pelvis_tilt	         pelvis_list	     pelvis_rotation	           pelvis_tx	           pelvis_ty	           pelvis_tz	       hip_flexion_r	     hip_adduction_r	      hip_rotation_r	        knee_angle_r	       ankle_angle_r	         mtp_angle_r	       hip_flexion_l	     hip_adduction_l	      hip_rotation_l	        knee_angle_l	       ankle_angle_l	         mtp_angle_l	    lumbar_extension	      lumbar_bending	     lumbar_rotation	 ercspn_r/activation	 intobl_r/activation	 extobl_r/activation	    abd_r/activation	    add_r/activation	hamstrings_r/activation	bifemsh_r/activation	glut_max_r/activation	iliopsoas_r/activation	rect_fem_r/activation	  vasti_r/activation	gastroc_r/activation	 soleus_r/activation	tib_ant_r/activation	 ercspn_l/activation	 intobl_l/activation	 extobl_l/activation	    abd_l/activation	    add_l/activation	hamstrings_l/activation	bifemsh_l/activation	glut_max_l/activation	iliopsoas_l/activation	rect_fem_l/activation	  vasti_l/activation	gastroc_l/activation	 soleus_l/activation	tib_ant_l/activation	
          1.14967617	         -6.96438589	         -1.25599020	          6.03491770	          1.49457902	          0.92304908	         -0.01019889	         34.29870422	         -1.19427793	         -8.54990406	         -8.00697438	          0.91596331	          0.23714489	        -11.09286641	         -1.04224156	         -4.97814102	        -11.08091666	          7.42092324	         35.80501431	         -5.95092275	          0.21986225	         -8.15975073	          0.19042816	          0.15422364	          0.00999999	          0.01000000	          0.32193125	          0.08535296	          0.15961762	          0.00999999	          0.11374423	          0.00999999	          0.00999999	          0.01364198	          0.00999999	          0.55635894	          0.15212926	          0.00999999	          0.00999999	          0.06834219	          0.00999999	          0.01319048	          0.24468667	          0.01692018	          0.60227305	          0.01000002	          0.00999999	          0.23851919	          0.37640564	          0.02402565	
          1.16117293	         -7.02276188	         -1.22841705	          6.07012273	          1.51252356	          0.92124513	         -0.00969878	         34.47573144	         -1.08321626	         -8.65125446	         -9.96743335	          0.60201868	          0.23106265	        -11.48323079	         -1.20584124	         -5.36238225	        -12.14796422	          6.15437832	         37.89288036	         -5.66168845	          0.56272836	         -8.59933487	          0.16384452	          0.12942430	          0.00999999	          0.00999999	          0.42390431	          0.08210448	          0.13395092	          0.12484127	          0.09545403	          0.00999999	          0.00999999	          0.01419942	          0.01419940	          0.57985272	          0.21140105	          0.00999999	          0.00999999	          0.05735269	          0.01191612	          0.01260963	          0.20534077	          0.01419939	          0.60693832	          0.01000000	          0.00999999	          0.20016503	          0.34822399	          0.02016230	
          1.17266969	         -7.05354132	         -1.25210878	          6.08391646	          1.53090128	          0.91962495	         -0.00914560	         34.40438739	         -1.01255334	         -8.54001002	        -11.81678786	          0.36628052	          0.20010867	        -11.71403273	         -1.45521228	         -5.74929763	        -13.57309522	          4.76744731	         39.97492882	         -5.34561209	          0.96403125	         -8.99651901	          0.15891906	          0.10861272	          0.00999999	          0.08354812	          0.35574001	          0.08343053	          0.11241146	          0.12304099	          0.08010491	          0.00999999	          0.00999999	          0.01191614	          0.01191612	          0.64178276	          0.18600659	          0.00999999	          0.00999999	          0.04813031	          0.00999999	          0.01058199	          0.20379631	          0.01191612	          0.61926063	          0.00999999	          0.00999999	          0.16797826	          0.30319745	          0.01692018	
          1.18416645	         -7.06089325	         -1.28886845	          6.06397015	          1.54942740	          0.91828672	         -0.00845184	         34.20873258	         -0.92877359	         -8.50030514	        -13.48470603	          0.01153751	          0.18486404	        -11.68677081	         -1.75936607	         -6.14497010	        -15.49441264	          3.23434452	         42.00806498	         -5.03936440	          1.37148565	         -9.33897244	          0.18207110	          0.09114767	          0.00999999	          0.13656758	          0.36393232	          0.08016803	          0.09433557	          0.22223858	          0.06722395	          0.00999999	          0.01383078	          0.01000001	          0.00999999	          0.68835369	          0.21236717	          0.00999999	          0.00999999	          0.04039090	          0.00999999	          0.00999999	          0.19538124	          0.00999999	          0.54723701	          0.00999999	          0.00999999	          0.14096716	          0.25444295	          0.01419939	
          1.19566322	         -7.04613432	         -1.33952980	          6.01235615	          1.56787710	          0.91733623	         -0.00763080	         34.00548635	         -0.82865990	         -8.52251780	        -15.17165888	         -0.27320406	          0.14728251	        -11.33815523	         -2.12694313	         -6.55018605	        -17.98602851	          1.53840674	         43.85497084	         -4.76369368	          1.78802184	         -9.62043858	          0.17327929	          0.07649102	          0.00999999	          0.18680607	          0.34058547	          0.07803246	          0.07916630	          0.25412147	          0.05641426	          0.00999999	          0.08590072	          0.00999999	          0.00999999	          0.73615317	          0.25669887	          0.00999999	          0.00999999	          0.03389600	          0.00999999	          0.01000001	          0.18285230	          0.00999999	          0.45924067	          0.00999999	          0.00999999	          0.11829948	          0.21352823	          0.01191612	
          1.20715998	         -7.01321688	         -1.42017499	          5.93688203	          1.58607218	          0.91693815	         -0.00669449	         33.80575620	         -0.68683334	         -8.53817767	        -16.92311165	         -0.17334277	          0.10477703	        -10.63051377	         -2.58234285	         -6.96522850	        -21.06225250	         -0.32981984	         45.24503869	         -4.52791921	          2.22862594	         -9.84416430	          0.17213475	          0.06419118	          0.00999999	          0.23282680	          0.31696901	          0.07936369	          0.06643627	          0.23053013	          0.04734278	          0.00999999	          0.18439147	          0.00999999	          0.00999999	          0.70439025	          0.28994416	          0.00999999	          0.00999999	          0.02844548	          0.05583698	          0.06356880	          0.15362600	          0.00999999	          0.38539424	          0.00999999	          0.00999999	          0.09927679	          0.17919265	          0.00999999	
          1.21865674	         -6.96846724	         -1.52328021	          5.84253246	          1.60389620	          0.91726553	         -0.00567000	         33.52454307	         -0.48790410	         -8.49047765	        -18.59552445	          0.49428129	          0.11870518	         -9.54465346	         -3.12510575	         -7.40252853	        -24.72860209	         -2.26436998	         45.63619652	         -4.33515877	          2.68241890	        -10.01384579	          0.15418964	          0.05386916	          0.00999999	          0.26520289	          0.28818312	          0.07508490	          0.05575324	          0.19346062	          0.03973001	          0.00999999	          0.28794130	          0.00999999	          0.00999999	          0.60734717	          0.30600499	          0.00999999	          0.00999999	          0.02387142	          0.14884857	          0.07017476	          0.12892276	          0.00999999	          0.32342240	          0.00999999	          0.00999999	          0.08331297	          0.15037826	          0.00999999	
          1.23015350	         -6.91933227	         -1.62830304	          5.72554264	          1.62125328	          0.91847420	         -0.00459335	         33.04357569	         -0.23619547	         -8.38760900	        -19.93343383	          1.57993133	          0.30702772	         -8.08423019	         -3.73648411	         -7.85995980	        -28.88517134	         -4.44153681	         44.98695632	         -4.19017122	          3.12678207	        -10.12650589	          0.13705467	          0.04520694	          0.00999999	          0.27762694	          0.25690047	          0.07744091	          0.04678805	          0.16235193	          0.03334138	          0.00999999	          0.32813883	          0.00999999	          0.00999999	          0.50968505	          0.30728937	          0.00999999	          0.00999999	          0.02003286	          0.21814234	          0.09766886	          0.12166117	          0.00999999	          0.27141571	          0.00999999	          0.00999999	          0.06991614	          0.12619726	          0.00999999	
          1.24165026	         -6.87098263	         -1.70399314	          5.58298114	          1.63807812	          0.92056441	         -0.00349980	         32.31923716	          0.03581694	         -8.25012442	        -20.79008832	          2.73753455	          0.67316568	         -6.29110549	         -4.38267117	         -8.32792166	        -33.38211404	         -6.85014429	         43.07632478	         -4.09920552	          3.52780882	        -10.18138778	          0.11501612	          0.03793761	          0.00999999	          0.27512762	          0.23946183	          0.07953049	          0.03926448	          0.13624555	          0.02798004	          0.00999999	          0.32181486	          0.00999999	          0.00999999	          0.42772710	          0.29903973	          0.00999999	          0.00999999	          0.01681156	          0.25803720	          0.08196360	          0.10209792	          0.00999999	          0.22777175	          0.00999999	          0.00999999	          0.05867355	          0.10590460	          0.07431102	
          1.25314702	         -6.82498427	         -1.73462524	          5.41923289	          1.65433288	          0.92335197	         -0.00242427	         31.39493012	          0.29703500	         -8.08601391	        -21.19957512	          3.73457949	          1.12084570	         -4.24917912	         -5.03528141	         -8.76439723	        -38.08916975	         -9.01697570	         39.40155615	         -4.06736797	          3.86840298	        -10.18319210	          0.09652140	          0.03183720	          0.00999999	          0.26156875	          0.20095610	          0.08523926	          0.03295071	          0.11433711	          0.02348082	          0.00999999	          0.31333562	          0.00999999	          0.00999999	          0.36621143	          0.30196367	          0.03782397	          0.00999999	          0.01410824	          0.21654452	          0.06878376	          0.08960652	          0.00999999	          0.19114579	          0.00999999	          0.00999999	          0.04923877	          0.08887502	          0.24716263	
